<?xml version="1.0" standalone="no"?>
<!DOCTYPE svg PUBLIC "-//W3C//DTD SVG 20010904//EN"
 "http://www.w3.org/TR/2001/REC-SVG-20010904/DTD/svg10.dtd">
<svg version="1.0" xmlns="http://www.w3.org/2000/svg"
 width="512.000000pt" height="512.000000pt" viewBox="0 0 512.000000 512.000000"
 preserveAspectRatio="xMidYMid meet">

<g transform="translate(0.000000,512.000000) scale(0.100000,-0.100000)"
fill="#D9444D" stroke="none">
<path d="M1770 5104 c-36 -7 -107 -34 -158 -59 -152 -76 -267 -205 -330 -373
-33 -90 -42 -272 -18 -377 22 -91 74 -196 134 -267 51 -61 923 -835 985 -875
21 -13 68 -31 103 -40 76 -19 154 -9 228 27 60 31 508 428 520 462 18 52 -33
108 -86 94 -13 -3 -122 -94 -243 -201 -121 -108 -237 -204 -257 -215 -50 -27
-132 -27 -177 1 -47 28 -941 820 -967 856 -154 212 -135 493 45 674 162 162
392 201 596 99 33 -16 112 -71 175 -121 132 -106 164 -122 240 -122 76 0 108
16 240 122 135 108 206 145 314 167 266 55 537 -126 596 -397 17 -76 8 -209
-18 -281 -34 -95 -89 -165 -232 -293 -74 -67 -139 -134 -144 -148 -15 -41 19
-81 70 -84 37 -3 46 4 168 112 151 134 203 194 251 290 52 105 68 188 62 325
-7 189 -62 315 -194 447 -119 118 -296 192 -461 193 -169 0 -314 -59 -497
-205 -158 -125 -151 -125 -310 0 -69 55 -154 112 -200 135 -135 66 -291 85
-435 54z"/>
<path d="M1024 3416 c-55 -26 -118 -91 -134 -141 l-11 -32 -37 13 c-109 39
-246 -19 -305 -130 -21 -39 -22 -56 -25 -301 -3 -253 -3 -262 18 -288 27 -34
80 -37 110 -7 19 19 20 33 20 255 0 270 5 296 66 321 45 19 84 11 115 -22 l24
-26 5 -541 c5 -537 5 -542 28 -599 13 -33 45 -82 73 -112 81 -89 617 -580 644
-590 56 -22 116 33 96 87 -5 14 -102 111 -215 217 -113 106 -206 195 -206 199
0 12 64 68 97 85 41 20 105 21 145 0 17 -9 155 -101 307 -206 302 -207 366
-263 403 -355 23 -58 23 -60 26 -551 l3 -492 -25 -25 -25 -25 -375 0 c-254 0
-383 4 -399 11 -37 17 -47 50 -47 163 0 125 -22 208 -78 289 -20 30 -137 165
-259 300 -295 324 -310 342 -345 411 -53 104 -58 152 -58 579 0 374 -1 388
-20 407 -30 30 -83 27 -110 -7 -21 -27 -21 -31 -18 -448 l3 -420 27 -80 c15
-44 44 -108 65 -142 21 -36 155 -193 311 -365 162 -179 284 -323 300 -353 23
-44 26 -66 32 -190 5 -116 10 -147 28 -182 26 -50 80 -96 131 -112 51 -15 800
-15 854 0 49 13 115 73 138 124 17 37 19 78 19 535 0 524 -2 549 -49 654 -32
71 -107 159 -185 216 l-76 55 0 486 0 485 -28 55 c-31 62 -92 113 -155 130
-42 11 -127 8 -159 -6 -16 -6 -18 0 -18 56 0 83 -13 129 -53 181 -46 62 -122
98 -204 98 -36 0 -73 -5 -84 -10 -18 -10 -19 -7 -19 63 0 111 -22 172 -83 232
-81 79 -184 97 -283 51z m165 -142 c51 -36 51 -34 51 -737 l0 -653 -33 -32
-34 -33 -51 46 c-98 88 -92 43 -92 744 0 399 4 619 10 631 24 46 106 64 149
34z m367 -362 c43 -35 44 -42 44 -515 l0 -455 -37 14 c-21 7 -68 13 -105 14
l-68 0 0 441 c0 305 3 447 11 462 19 37 52 57 94 57 23 0 49 -8 61 -18z m347
-313 c58 -30 57 -17 57 -477 l0 -423 -105 72 -105 72 0 332 c0 221 4 343 11
364 20 56 91 86 142 60z"/>
<path d="M3902 3427 c-45 -14 -118 -81 -144 -131 -16 -30 -22 -66 -26 -138 -4
-90 -6 -97 -23 -88 -33 18 -146 12 -192 -11 -98 -49 -138 -115 -145 -237 -4
-72 -7 -82 -21 -76 -32 13 -117 16 -158 5 -63 -17 -124 -68 -155 -130 l-28
-55 0 -371 c0 -353 1 -373 19 -389 27 -25 78 -24 104 3 22 21 22 28 27 379 3
196 9 364 13 373 5 9 23 25 42 35 47 25 101 11 132 -35 23 -34 23 -36 23 -376
l0 -342 -57 -40 c-296 -204 -422 -294 -454 -325 -52 -51 -104 -131 -131 -203
-22 -59 -23 -68 -26 -575 -3 -582 -5 -567 72 -638 24 -22 61 -45 82 -51 55
-15 804 -15 855 0 51 16 105 62 131 112 18 35 23 66 28 182 6 124 9 146 32
190 16 30 138 174 300 353 156 172 290 329 311 365 21 34 50 98 65 142 l27 80
0 825 0 825 -22 41 c-59 111 -196 169 -305 130 l-37 -13 -11 32 c-16 50 -79
115 -134 141 -55 26 -135 30 -194 11z m165 -172 l23 -26 0 -616 c0 -706 6
-660 -93 -749 l-51 -46 -33 36 -33 36 0 652 c0 602 1 656 18 688 9 19 28 41
42 48 38 19 101 8 127 -23z m328 -149 c68 -29 65 8 65 -833 0 -619 -3 -770
-15 -826 -26 -126 -63 -178 -361 -506 -151 -167 -286 -324 -301 -348 -45 -77
-63 -154 -63 -269 0 -109 -13 -155 -45 -168 -9 -3 -187 -6 -396 -6 l-380 0
-24 25 -25 24 0 468 c0 386 3 479 15 527 19 71 52 130 102 177 46 44 585 416
630 435 69 30 147 8 208 -56 l30 -32 -130 -121 c-71 -67 -170 -160 -219 -208
-80 -80 -88 -90 -82 -116 9 -37 41 -63 77 -63 34 0 21 -11 375 317 302 279
335 315 366 392 23 55 23 63 28 597 5 592 2 563 65 590 38 17 39 17 80 0z
m-714 -186 c48 -26 49 -40 49 -510 l0 -440 -70 0 c-39 0 -86 -6 -105 -14 l-35
-15 0 455 c0 474 1 481 44 516 23 20 87 24 117 8z"/>
</g>
</svg>
